# xmcd
#
# Track frame offsets: 
#        150
#        14525
#        29245
#        53490
#        66547
#        80200
#        104710
#        119502
#        133815
#        159980
#        176797
#        194405
#
# Disc length: 2802 seconds
#
# Revision: 5
# Processed by: cddbd v1.5.2PL0 Copyright (c) Steve Scherf et al.
# Submitted via: ExactAudioCopy v1.0b3
#
DISCID=ba0af00c
DTITLE=Magic Slim - Black Tornado
DYEAR=1998
DGENRE=Blues
TTITLE0=Jealous Man
TTITLE1=Wake Me Up Early
TTITLE2=Still a Fool
TTITLE3=Black Tornado
TTITLE4=Playin With My Mind
TTITLE5=I Can't Trust My Woman
TTITLE6=Magic Boogie
TTITLE7=You've Got Bad Intentions
TTITLE8=Crazy Woman
TTITLE9=Young Man's Blues
TTITLE10=It's Alright
TTITLE11=Love Like I Wanna
EXTD=YEAR: 1998
EXTT0=
EXTT1=
EXTT2=
EXTT3=
EXTT4=
EXTT5=
EXTT6=
EXTT7=
EXTT8=
EXTT9=
EXTT10=
EXTT11=
PLAYORDER=
